<?xml version="1.0" encoding="utf-8"?>
<!-- Generator: Adobe Illustrator 19.2.0, SVG Export Plug-In . SVG Version: 6.00 Build 0)  -->
<svg version="1.1" id="Layer_1" xmlns="http://www.w3.org/2000/svg" xmlns:xlink="http://www.w3.org/1999/xlink" x="0px" y="0px"
	 viewBox="0 0 283.4599915 99.2099991" style="enable-background:new 0 0 283.4599915 99.2099991;" xml:space="preserve">
<style type="text/css">
	.st0{fill:#B62C47;}
</style>
<g>
	<g>
		<path class="st0" d="M47.518116,44.5039673l1.7440186,1.006897c-0.8552246,1.8417969-1.3461304,3.8870239-1.3461304,6.0513306
			c0,7.9552002,6.4489136,14.4041138,14.4040527,14.4041138s14.4040565-6.4489136,14.4040565-14.4041138
			c0-7.9550781-6.4489136-14.4039917-14.4040565-14.4039917c-4.8685303,0-9.1643677,2.4221191-11.7716064,6.1199341
			l-1.7494507-1.0100098c2.9639893-4.2983398,7.9165039-7.125,13.5209351-7.125
			c7.6343422,0,14.067997,5.2373657,15.8977699,12.3075562l2.5411377-0.4480591
			c-2.0478516-8.2787476-9.5363159-14.4360962-18.4389076-14.4360962c-10.4741821,0-18.9955444,8.5213623-18.9955444,18.9955444
			c0,5.3689575,2.2424927,10.2210693,5.8358154,13.6792603l1.6583252-1.9761963
			c-3.0324097-2.9807739-4.9175415-7.1251221-4.9175415-11.703064
			C45.9009895,49.0332642,46.4924812,46.6456909,47.518116,44.5039673z M69.7083664,52.7226562
			c-0.2939453-0.1650391-0.8354492-0.3837891-1.6240234-0.65625c-1.0327148-0.3583984-1.8256836-0.7890625-2.3774414-1.2910156
			c-0.5522461-0.5019531-0.8286133-1.21875-0.8286133-2.1513672c0-0.8603516,0.3476562-1.5703125,1.043457-2.1298828
			s1.581543-0.8398438,2.6572266-0.8398438c1.3911133,0,2.625,0.4384766,3.7006836,1.3125l-1.2050781,1.8935547
			c-0.7890625-0.7451172-1.6640625-1.1181641-2.6245117-1.1181641c-0.2871094,0-0.5488281,0.0751953-0.7856445,0.2255859
			c-0.2363281,0.1503906-0.3549805,0.3759766-0.3549805,0.6777344c0,0.4296875,0.5522461,0.8535156,1.6567383,1.2695312
			c1.362793,0.5302734,2.2163086,0.9179688,2.5605469,1.1611328c0.7167969,0.5029297,1.0756836,1.2412109,1.0756836,2.2167969
			c0,0.9326172-0.3334961,1.6962891-1.0004883,2.2910156c-0.6669922,0.5957031-1.6386719,0.8925781-2.9155273,0.8925781
			c-1.6782227,0-3.0908203-0.5087891-4.2382812-1.5273438l1.2050781-1.8076172
			c0.831543,0.8183594,1.8427734,1.2265625,3.0332031,1.2265625c0.4589844,0,0.8178711-0.0927734,1.0761719-0.2792969
			c0.2578125-0.1865234,0.387207-0.4375,0.387207-0.7529297C70.1497726,53.0917969,70.0023117,52.8876953,69.7083664,52.7226562z
			 M53.4432259,47.1396484c0.9389648-1.0039062,2.1333008-1.5068359,3.5820312-1.5068359
			c1.3193359,0,2.409668,0.4306641,3.2705078,1.2910156h0.0429688v-1.1181641h2.409668v9.4228516
			c0,1.6923828-0.4301758,3.0302734-1.2910156,4.0126953c-0.8603516,0.9824219-2.2158203,1.4736328-4.0664062,1.4736328
			c-1.6352539,0-3.0625-0.3652344-4.28125-1.0966797l0.5805664-2.1083984
			c0.6743164,0.3583984,1.2661133,0.6201172,1.7753906,0.7851562c0.5087891,0.1650391,1.1079102,0.2470703,1.7963867,0.2470703
			c0.9897461,0,1.7568359-0.2470703,2.3022461-0.7421875c0.5449219-0.4951172,0.8173828-1.1074219,0.8173828-1.8398438v-1.1181641
			H60.360218c-0.8320312,0.8603516-1.9008789,1.2910156-3.2055664,1.2910156c-1.4775391,0-2.7001953-0.4804688-3.668457-1.4414062
			s-1.4521484-2.2089844-1.4521484-3.7441406C52.0340462,49.4130859,52.5032845,48.1435547,53.4432259,47.1396484z
			 M57.4774055,53.9169922c0.8745117,0,1.5883789-0.2910156,2.140625-0.8720703
			c0.5517578-0.5810547,0.828125-1.3154297,0.828125-2.2050781c0-0.875-0.2832031-1.5917969-0.8496094-2.1513672
			c-0.5668945-0.5595703-1.2734375-0.8388672-2.1191406-0.8388672c-0.8896484,0-1.6103516,0.2832031-2.1625977,0.8496094
			s-0.828125,1.2949219-0.828125,2.1835938c0,0.9179688,0.2827148,1.6533203,0.8496094,2.2050781
			C55.9026985,53.640625,56.6165657,53.9169922,57.4774055,53.9169922z M81.2070236,49.5400391l-2.5449219,0.4486694
			c0.0495605,0.5181274,0.0770874,1.0425415,0.0770874,1.5733643c0,9.0536499-7.3656616,16.4192505-16.4192543,16.4192505
			c-3.5505981,0-6.8388062-1.1366577-9.527771-3.0599976l-1.6604004,1.9787598
			c3.140686,2.2973022,7.0076904,3.6578369,11.1881714,3.6578369c10.4741859,0,18.9958534-8.5216675,18.9958534-18.9958496
			C81.3157883,50.8789673,81.2777023,50.2047119,81.2070236,49.5400391z"/>
		<g>
			<path class="st0" d="M107.2689133,41.3291016h1.815918v16.1689453c0,2.3984375-0.675293,4.3134766-2.0253906,5.7451172
				c-1.3505859,1.4326172-3.3647461,2.1484375-6.0419922,2.1484375c-2.4916992,0-4.7963867-0.640625-6.9150391-1.9208984
				l0.4892578-1.7119141c2.0483398,1.2578125,4.1787109,1.8867188,6.390625,1.8867188
				c2.0488281,0,3.6088867-0.5419922,4.6801758-1.6240234c1.0703125-1.0830078,1.6064453-2.4970703,1.6064453-4.2431641v-2.8994141
				h-0.0698242c-1.4902344,2.0732422-3.597168,3.1083984-6.3212891,3.1083984c-2.3286133,0-4.2783203-0.7685547-5.8496094-2.3046875
				c-1.5717773-1.5371094-2.3574219-3.5507812-2.3574219-6.0419922c0-2.4443359,0.7563477-4.4707031,2.2700195-6.0771484
				c1.5131836-1.6064453,3.46875-2.4091797,5.8671875-2.4091797c2.7006836,0,4.8310547,1.0712891,6.3911133,3.2128906h0.0698242
				V41.3291016z M100.9476242,56.2412109c1.8857422,0,3.4165039-0.6396484,4.5922852-1.9208984
				c1.1757812-1.2802734,1.7636719-2.8984375,1.7636719-4.8544922c0-1.9316406-0.6054688-3.5097656-1.815918-4.7324219
				c-1.2109375-1.2216797-2.7124023-1.8330078-4.5053711-1.8330078c-1.862793,0-3.3994141,0.6347656-4.6098633,1.9033203
				c-1.2109375,1.2695312-1.815918,2.8583984-1.815918,4.7666016c0,1.9794922,0.6166992,3.5859375,1.8510742,4.8203125
				C97.6414719,55.625,99.1546555,56.2412109,100.9476242,56.2412109z"/>
			<path class="st0" d="M125.862175,41.3291016h2.0253906l-9.8833008,23.9775391l-1.9907227-0.0839844l3.0302734-7.3505859
				l-7.4306641-16.5429688h1.9907227l6.3041992,14.2910156h0.0639648L125.862175,41.3291016z"/>
			<path class="st0" d="M139.0037689,41.1542969c1.7924805,0,3.1953125,0.5761719,4.2084961,1.7285156
				c1.0126953,1.1523438,1.519043,2.9394531,1.519043,5.3603516v10.0585938h-1.8510742v-9.8134766
				c0-3.7246094-1.4316406-5.5878906-4.2954102-5.5878906c-1.8632812,0-3.3647461,0.6347656-4.5053711,1.9033203
				c-1.1411133,1.2695312-1.7114258,2.9628906-1.7114258,5.0810547v8.4169922h-1.8510742V41.3291016h1.8510742v3.3173828h0.0351562
				c0.7211914-1.1171875,1.6586914-1.9785156,2.8115234-2.5839844
				C136.3670502,41.4570312,137.6297455,41.1542969,139.0037689,41.1542969z"/>
			<path class="st0" d="M162.7410736,41.3291016h1.8164062v16.9726562h-1.7460938v-3.2480469h-0.0703125
				c-1.4433594,2.2822266-3.5859375,3.4228516-6.4257812,3.4228516c-2.3515625,0-4.3251953-0.7861328-5.9194336-2.3574219
				c-1.5952148-1.5712891-2.3925781-3.6259766-2.3925781-6.1640625c0-2.4912109,0.7739258-4.5810547,2.3227539-6.2685547
				c1.5478516-1.6884766,3.5214844-2.5322266,5.9189453-2.5322266c1.3271484,0,2.5556641,0.3085938,3.6845703,0.9248047
				c1.1289062,0.6171875,2.0429688,1.484375,2.7421875,2.6025391h0.0693359V41.3291016z M156.4197845,56.7304688
				c1.7460938,0,3.2480469-0.6347656,4.5058594-1.9033203c1.2568359-1.2695312,1.8857422-2.8818359,1.8857422-4.8369141
				c0-2.0029297-0.5996094-3.6787109-1.7988281-5.0292969s-2.71875-2.0253906-4.5576172-2.0253906
				c-1.8398438,0-3.3935547,0.6513672-4.6621094,1.9550781c-1.2695312,1.3046875-1.9038086,3.0039062-1.9038086,5.0996094
				c0,1.9326172,0.6113281,3.5390625,1.8339844,4.8193359C152.9451752,56.0898438,154.5106049,56.7304688,156.4197845,56.7304688z"
				/>
			<path class="st0" d="M183.6287689,49.3613281c0,0.1162109,0,0.25,0,0.4013672s0,0.2744141,0,0.3671875l-0.0351562,0.1396484
				h-13.6894531c0.0917969,1.9326172,0.7333984,3.4921875,1.9199219,4.6796875c1.1875,1.1875,2.6660156,1.78125,4.4355469,1.78125
				c2.1884766,0,3.9697266-0.8496094,5.34375-2.5498047l1.3271484,1.1171875
				c-1.6064453,2.1191406-3.8193359,3.1787109-6.6357422,3.1787109c-2.375,0-4.3476562-0.8085938-5.9199219-2.4277344
				c-1.5712891-1.6171875-2.3574219-3.6953125-2.3574219-6.2333984c0-2.5146484,0.7626953-4.5810547,2.2880859-6.1992188
				c1.5244141-1.6181641,3.4160156-2.4267578,5.6748047-2.4267578c2.28125,0,4.1269531,0.7675781,5.5351562,2.3046875
				C182.9246674,45.0302734,183.6287689,46.9863281,183.6287689,49.3613281z M179.9793549,44.4716797
				c-1.0126953-1.0244141-2.2998047-1.5361328-3.859375-1.5361328s-2.9101562,0.5117188-4.0507812,1.5361328
				c-1.1416016,1.0253906-1.828125,2.3867188-2.0605469,4.0859375h11.7695312
				C181.5916595,46.8583984,180.9920502,45.4970703,179.9793549,44.4716797z"/>
			<path class="st0" d="M191.8992767,58.4765625c-2.5380859,0-4.7148438-0.8037109-6.53125-2.4101562l1.0478516-1.4316406
				c1.4667969,1.3964844,3.2949219,2.0957031,5.4833984,2.0957031c1.2333984,0,2.2001953-0.2792969,2.8984375-0.8388672
				c0.6982422-0.5585938,1.0478516-1.2695312,1.0478516-2.1318359c0-0.9550781-0.6289062-1.7226562-1.8847656-2.3056641
				c-0.3730469-0.1630859-1.3037109-0.4990234-2.7949219-1.0097656c-1.6533203-0.5595703-2.8984375-1.1875-3.7373047-1.8867188
				c-0.8378906-0.6982422-1.2568359-1.7109375-1.2568359-3.0380859c0-1.2568359,0.4941406-2.2929688,1.484375-3.1083984
				c0.9892578-0.8144531,2.2529297-1.2216797,3.7890625-1.2216797c2.1650391,0,4.0507812,0.6865234,5.6582031,2.0595703
				l-1.0478516,1.4326172c-1.3740234-1.1875-2.96875-1.78125-4.7851562-1.78125
				c-0.9082031,0-1.6757812,0.2363281-2.3046875,0.7089844s-0.9433594,1.1220703-0.9433594,1.9492188
				c0,0.4492188,0.0810547,0.8339844,0.2412109,1.1523438c0.1601562,0.3193359,0.4580078,0.6083984,0.8935547,0.8681641
				c0.4345703,0.2597656,0.7929688,0.4453125,1.0742188,0.5546875c0.2822266,0.1083984,0.7802734,0.3027344,1.4951172,0.5800781
				c2.2236328,0.7841797,3.6289062,1.3613281,4.2138672,1.7304688c1.2167969,0.7851562,1.8144531,1.9384766,1.7910156,3.4619141
				c0,1.2929688-0.5117188,2.3779297-1.5361328,3.2548828C195.1697845,58.0380859,193.7381439,58.4765625,191.8992767,58.4765625z"
				/>
			<path class="st0" d="M208.5193939,58.4765625c-2.5615234,0-4.6396484-0.8261719-6.234375-2.4794922
				s-2.3925781-3.7021484-2.3925781-6.1464844c0-2.4677734,0.7978516-4.5341797,2.3925781-6.1992188
				s3.6728516-2.4970703,6.234375-2.4970703c2.4667969,0,4.5166016,0.8085938,6.1464844,2.4267578
				c1.6289062,1.6191406,2.4443359,3.7080078,2.4443359,6.2695312c0,2.5371094-0.8154297,4.609375-2.4443359,6.2158203
				C213.0359955,57.6728516,210.9861908,58.4765625,208.5193939,58.4765625z M208.4842377,56.7304688
				c1.9082031,0,3.5097656-0.6464844,4.8017578-1.9384766s1.9384766-2.9394531,1.9384766-4.9414062
				c0-2.0488281-0.6464844-3.7197266-1.9384766-5.0117188c-1.2919922-1.2929688-2.8935547-1.9384766-4.8017578-1.9384766
				c-1.9794922,0-3.5917969,0.6699219-4.8369141,2.0078125c-1.2460938,1.3388672-1.8681641,2.9863281-1.8681641,4.9423828
				c0,1.9326172,0.6220703,3.5615234,1.8681641,4.8886719C204.8924408,56.0664062,206.5047455,56.7304688,208.4842377,56.7304688z"
				/>
			<path class="st0" d="M221.0496674,58.3017578V43.0400391h-2.2353516v-1.7109375h2.2353516v-3.7373047
				c0-1.7226562,0.3896484-3.0146484,1.1699219-3.8769531c0.7802734-0.8603516,1.8691406-1.2919922,3.265625-1.2919922
				c1.2802734,0,2.4912109,0.3261719,3.6318359,0.9785156l-0.3837891,1.640625
				c-1.0947266-0.5810547-2.1308594-0.8730469-3.1083984-0.8730469c-1.8398438,0-2.7587891,1.1875-2.7587891,3.5625v3.5976562
				h5.4130859v1.7109375h-5.4130859v15.2617188H221.0496674z"/>
			<path class="st0" d="M236.224472,58.4765625c-1.4667969,0-2.5205078-0.4189453-3.1611328-1.2578125
				c-0.640625-0.8378906-0.9599609-2.0712891-0.9599609-3.7011719V43.0400391h-2.2353516v-1.7109375h2.2353516v-5.9375
				l1.8505859-0.2099609v6.1474609h6.1816406v1.7109375h-6.1816406v10.0234375c0,1.2568359,0.1748047,2.1767578,0.5234375,2.7587891
				c0.3496094,0.5820312,1.0009766,0.8730469,1.9560547,0.8730469c1.0009766,0,2.0722656-0.3261719,3.2128906-0.9775391
				l0.4541016,1.6757812C238.8660736,58.1152344,237.5740814,58.4765625,236.224472,58.4765625z"/>
		</g>
	</g>
</g>
</svg>
